<svg width="132" height="40" viewBox="0 0 132 40" fill="none" xmlns="http://www.w3.org/2000/svg">
<path d="M108.666 30C111.625 29.9994 114.498 29.0091 116.828 27.1867L124.155 34.5133L126.511 32.1567L119.185 24.83C121.008 22.4995 121.999 19.6257 122 16.6667C122 9.31501 116.018 3.33334 108.666 3.33334C101.315 3.33334 95.333 9.31501 95.333 16.6667C95.333 24.0183 101.315 30 108.666 30ZM108.666 6.66668C114.181 6.66668 118.666 11.1517 118.666 16.6667C118.666 22.1817 114.181 26.6667 108.666 26.6667C103.151 26.6667 98.6663 22.1817 98.6663 16.6667C98.6663 11.1517 103.151 6.66668 108.666 6.66668Z" fill="#54BAB9"/>
<path d="M111.02 14.31C111.652 14.9433 112 15.78 112 16.6667H115.334C115.335 15.7907 115.163 14.9231 114.827 14.1141C114.491 13.3051 113.998 12.5707 113.377 11.9533C110.854 9.43332 106.479 9.43332 103.957 11.9533L106.31 14.3133C107.577 13.05 109.76 13.0533 111.02 14.31Z" fill="#54BAB9"/>
<path d="M6.91602 28.3516C4.06836 28.3516 1.78906 27.8652 0.078125 26.8926L0.552734 23.4297C1.32617 23.8516 2.31055 24.2324 3.50586 24.5723C4.70117 24.9004 5.79102 25.0645 6.77539 25.0645C7.79492 25.0645 8.58594 24.877 9.14844 24.502C9.72266 24.1152 10.0156 23.5527 10.0273 22.8145C10.0273 22.1465 9.75781 21.6191 9.21875 21.2324C8.69141 20.8457 7.67773 20.3652 6.17773 19.791C5.66211 19.6035 5.32812 19.4805 5.17578 19.4219C3.39453 18.7305 2.11133 17.9629 1.32617 17.1191C0.541016 16.2637 0.148438 15.1094 0.148438 13.6562C0.148438 11.8984 0.78125 10.5508 2.04688 9.61328C3.32422 8.67578 5.09961 8.20703 7.37305 8.20703C9.83398 8.20703 11.9961 8.66992 13.8594 9.5957L12.7168 12.7773C10.877 11.9219 9.125 11.4941 7.46094 11.4941C6.53516 11.4941 5.80859 11.6523 5.28125 11.9688C4.76562 12.2734 4.50781 12.7422 4.50781 13.375C4.50781 13.9727 4.75977 14.4414 5.26367 14.7812C5.76758 15.1094 6.75195 15.543 8.2168 16.082C8.26367 16.0938 8.41602 16.1465 8.67383 16.2402C8.93164 16.334 9.13086 16.4102 9.27148 16.4688C11.041 17.1133 12.3418 17.8867 13.1738 18.7891C14.0059 19.6797 14.4219 20.8457 14.4219 22.2871C14.4102 24.2207 13.7539 25.7148 12.4531 26.7695C11.1523 27.8242 9.30664 28.3516 6.91602 28.3516ZM25.7949 28.2637C24.4824 28.2637 23.3867 28.1113 22.5078 27.8066C21.6406 27.4902 20.9609 26.998 20.4688 26.3301C19.9766 25.6621 19.625 24.877 19.4141 23.9746C19.2148 23.0605 19.1152 21.9355 19.1152 20.5996V11.4766H15.9512L16.127 8.98047L19.4316 8.68164L20.9082 3.44336L23.7207 3.42578V8.68164H28.5195V11.4766H23.7207V20.6875C23.7207 22.1523 23.9316 23.1953 24.3535 23.8164C24.7754 24.4375 25.5547 24.748 26.6914 24.748C27.3594 24.748 28.0742 24.6895 28.8359 24.5723L28.959 27.877C28.9355 27.877 28.7891 27.9062 28.5195 27.9648C28.2617 28.0117 28.0098 28.0527 27.7637 28.0879C27.5293 28.1348 27.2246 28.1758 26.8496 28.2109C26.4746 28.2461 26.123 28.2637 25.7949 28.2637ZM37.2734 28.3691C35.4805 28.3691 34.0273 27.877 32.9141 26.8926C31.8125 25.8965 31.2617 24.4668 31.2617 22.6035C31.2617 20.5996 31.918 19.1172 33.2305 18.1562C34.543 17.1836 36.5234 16.5684 39.1719 16.3105C39.5352 16.2637 39.9277 16.2168 40.3496 16.1699C40.7715 16.123 41.2461 16.0762 41.7734 16.0293C42.3008 15.9824 42.7168 15.9414 43.0215 15.9062V14.8867C43.0215 13.7148 42.752 12.8652 42.2129 12.3379C41.6738 11.7988 40.8535 11.5293 39.752 11.5293C38.1816 11.5293 36.2422 11.9688 33.9336 12.8477C33.9219 12.8125 33.7285 12.2793 33.3535 11.248C32.9785 10.2168 32.7852 9.68945 32.7734 9.66602C35.0469 8.69336 37.5078 8.20703 40.1562 8.20703C42.7578 8.20703 44.6504 8.77539 45.834 9.91211C47.0176 11.0371 47.6094 12.8652 47.6094 15.3965V28H44.1992C44.1875 27.9531 44.0586 27.5605 43.8125 26.8223C43.5664 26.084 43.4434 25.6914 43.4434 25.6445C42.4824 26.582 41.5391 27.2734 40.6133 27.7188C39.6992 28.1523 38.5859 28.3691 37.2734 28.3691ZM38.5215 25.0996C39.5879 25.0996 40.5137 24.8477 41.2988 24.3438C42.0957 23.8281 42.6641 23.207 43.0039 22.4805V18.7539C42.9688 18.7539 42.6582 18.7773 42.0723 18.8242C41.498 18.8711 41.1875 18.8945 41.1406 18.8945C39.2773 19.0586 37.9121 19.4102 37.0449 19.9492C36.1777 20.4883 35.7441 21.3555 35.7441 22.5508C35.7441 23.3711 35.9844 24.0039 36.4648 24.4492C36.9453 24.8828 37.6309 25.0996 38.5215 25.0996ZM52.25 28V8.68164H55.959L56.4688 11.125C58.4375 9.17969 60.623 8.20703 63.0254 8.20703C65.2754 8.20703 66.957 8.85742 68.0703 10.1582C69.1953 11.4473 69.7578 13.3223 69.7578 15.7832V28H65.1348V16.3457C65.123 14.7871 64.8711 13.6211 64.3789 12.8477C63.8867 12.0742 63.002 11.6875 61.7246 11.6875C60.7285 11.6875 59.8145 11.9453 58.9824 12.4609C58.1621 12.9648 57.5645 13.6035 57.1895 14.377C56.9668 15.291 56.8555 16.6973 56.8555 18.5957V28H52.25ZM74.293 28V1.5625L78.8984 1.26367V13.1289L78.793 17.0312C78.8047 17.0195 78.9219 16.9023 79.1445 16.6797C79.3789 16.457 79.5078 16.334 79.5312 16.3105C80.1758 15.5488 80.873 14.7637 81.623 13.9551C82.3848 13.1465 83.3398 12.1562 84.4883 10.9844C85.6484 9.8125 86.4043 9.04492 86.7559 8.68164H92.2402L84.2949 16.9082L92.75 28H87.1777L80.8145 19.2285L78.8984 20.7402V28H74.293Z" fill="#54BAB9"/>
</svg>
