<svg id="visual" viewBox="0 0 900 600" width="900" height="600" xmlns="http://www.w3.org/2000/svg" xmlns:xlink="http://www.w3.org/1999/xlink" version="1.1"><rect x="0" y="0" width="900" height="600" fill="#E9DAC1"></rect><defs><linearGradient id="grad1_0" x1="33.3%" y1="0%" x2="100%" y2="100%"><stop offset="20%" stop-color="#e9dac1" stop-opacity="1"></stop><stop offset="80%" stop-color="#e9dac1" stop-opacity="1"></stop></linearGradient></defs><defs><linearGradient id="grad2_0" x1="0%" y1="0%" x2="66.7%" y2="100%"><stop offset="20%" stop-color="#e9dac1" stop-opacity="1"></stop><stop offset="80%" stop-color="#e9dac1" stop-opacity="1"></stop></linearGradient></defs><g transform="translate(900, 0)"><path d="M0 351.5C-58.7 338.1 -117.4 324.7 -171.5 297C-225.6 269.4 -275.2 227.6 -304.4 175.8C-333.7 123.9 -342.6 62 -351.5 0L0 0Z" fill="#54BAB9"></path></g><g transform="translate(0, 600)"><path d="M0 -351.5C58.7 -338.1 117.4 -324.7 171.5 -297C225.6 -269.4 275.2 -227.6 304.4 -175.8C333.7 -123.9 342.6 -62 351.5 0L0 0Z" fill="#54BAB9"></path></g></svg>